<?xml version="1.0" encoding="UTF-8" standalone="no"?>
<!DOCTYPE svg PUBLIC "-//W3C//DTD SVG 1.1//EN"
 "http://www.w3.org/Graphics/SVG/1.1/DTD/svg11.dtd">
<!-- Generated by graphviz version 2.38.0 (20140413.2041)
 -->
<!-- Title: finite_state_machine Pages: 1 -->
<svg width="1612pt" height="885pt"
 viewBox="0.00 0.00 1611.63 885.49" xmlns="http://www.w3.org/2000/svg" xmlns:xlink="http://www.w3.org/1999/xlink">
<g id="graph0" class="graph" transform="scale(1 1) rotate(0) translate(4 881.493)">
<title>finite_state_machine</title>
<polygon fill="white" stroke="none" points="-4,4 -4,-881.493 1607.63,-881.493 1607.63,4 -4,4"/>
<!-- START -->
<g id="node1" class="node"><title>START</title>
<ellipse fill="none" stroke="black" cx="39.6465" cy="-394.644" rx="39.7935" ry="39.7935"/>
<text text-anchor="middle" x="39.6465" y="-390.944" font-family="Helvetica,Arial,sans-serif" font-size="14.00">START</text>
</g>
<!-- paren -->
<g id="node21" class="node"><title>paren</title>
<ellipse fill="none" stroke="black" cx="176.44" cy="-496.644" rx="33.2948" ry="33.2948"/>
<text text-anchor="middle" x="176.44" y="-492.944" font-family="Helvetica,Arial,sans-serif" font-size="14.00">paren</text>
</g>
<!-- START&#45;&gt;paren -->
<g id="edge4" class="edge"><title>START&#45;&gt;paren</title>
<path fill="none" stroke="black" d="M71.9096,-418.301C92.6444,-433.992 119.857,-454.584 141.18,-470.719"/>
<polygon fill="black" stroke="black" points="139.244,-473.644 149.331,-476.887 143.468,-468.062 139.244,-473.644"/>
<text text-anchor="middle" x="111.293" y="-462.444" font-family="Helvetica,Arial,sans-serif" font-size="14.00">&#39;</text>
</g>
<!-- 0 -->
<g id="node22" class="node"><title>0</title>
<ellipse fill="none" stroke="black" cx="176.44" cy="-394.644" rx="18" ry="18"/>
<text text-anchor="middle" x="176.44" y="-390.944" font-family="Helvetica,Arial,sans-serif" font-size="14.00">0</text>
</g>
<!-- START&#45;&gt;0 -->
<g id="edge17" class="edge"><title>START&#45;&gt;0</title>
<path fill="none" stroke="black" d="M79.6344,-394.644C101.546,-394.644 128.362,-394.644 148.045,-394.644"/>
<polygon fill="black" stroke="black" points="148.169,-398.144 158.169,-394.644 148.169,-391.144 148.169,-398.144"/>
<text text-anchor="middle" x="111.293" y="-398.444" font-family="Helvetica,Arial,sans-serif" font-size="14.00">&#39;</text>
</g>
<!-- INT -->
<g id="node35" class="node"><title>INT</title>
<ellipse fill="none" stroke="black" cx="176.44" cy="-294.644" rx="24.8692" ry="24.8692"/>
<ellipse fill="none" stroke="black" cx="176.44" cy="-294.644" rx="28.897" ry="28.897"/>
<text text-anchor="middle" x="176.44" y="-290.944" font-family="Helvetica,Arial,sans-serif" font-size="14.00">INT</text>
</g>
<!-- START&#45;&gt;INT -->
<g id="edge1" class="edge"><title>START&#45;&gt;INT</title>
<path fill="none" stroke="black" d="M71.9096,-371.451C93.743,-355.253 122.759,-333.727 144.517,-317.585"/>
<polygon fill="black" stroke="black" points="146.819,-320.236 152.765,-311.467 142.648,-314.614 146.819,-320.236"/>
<text text-anchor="middle" x="111.293" y="-354.444" font-family="Helvetica,Arial,sans-serif" font-size="14.00">[0&#45;9]</text>
</g>
<!-- m -->
<g id="node2" class="node"><title>m</title>
<ellipse fill="none" stroke="black" cx="448.327" cy="-706.644" rx="18.6979" ry="18.6979"/>
<text text-anchor="middle" x="448.327" y="-702.944" font-family="Helvetica,Arial,sans-serif" font-size="14.00">m</text>
</g>
<!-- u -->
<g id="node3" class="node"><title>u</title>
<ellipse fill="none" stroke="black" cx="581.723" cy="-712.644" rx="18" ry="18"/>
<text text-anchor="middle" x="581.723" y="-708.944" font-family="Helvetica,Arial,sans-serif" font-size="14.00">u</text>
</g>
<!-- m&#45;&gt;u -->
<g id="edge37" class="edge"><title>m&#45;&gt;u</title>
<path fill="none" stroke="black" d="M463.808,-718.052C470.02,-722.251 477.586,-726.501 485.175,-728.644 508.5,-735.231 535.84,-729.332 555.285,-722.918"/>
<polygon fill="black" stroke="black" points="556.69,-726.133 564.935,-719.479 554.34,-719.539 556.69,-726.133"/>
<text text-anchor="middle" x="507.175" y="-735.444" font-family="Helvetica,Arial,sans-serif" font-size="14.00">&#39;U&#39;</text>
</g>
<!-- SUM -->
<g id="node25" class="node"><title>SUM</title>
<ellipse fill="none" stroke="black" cx="581.723" cy="-641.644" rx="30.5892" ry="30.5892"/>
<ellipse fill="none" stroke="black" cx="581.723" cy="-641.644" rx="34.5946" ry="34.5946"/>
<text text-anchor="middle" x="581.723" y="-637.944" font-family="Helvetica,Arial,sans-serif" font-size="14.00">SUM</text>
</g>
<!-- m&#45;&gt;SUM -->
<g id="edge28" class="edge"><title>m&#45;&gt;SUM</title>
<path fill="none" stroke="black" d="M456.927,-689.866C465.905,-670.42 480.243,-640.64 485.175,-637.644 500.833,-628.134 520.745,-627.565 538.334,-629.997"/>
<polygon fill="black" stroke="black" points="537.922,-633.477 548.372,-631.73 539.113,-626.58 537.922,-633.477"/>
<text text-anchor="middle" x="507.175" y="-641.444" font-family="Helvetica,Arial,sans-serif" font-size="14.00">&#39;(&#39;</text>
</g>
<!-- u&#45;&gt;m -->
<g id="edge27" class="edge"><title>u&#45;&gt;m</title>
<path fill="none" stroke="black" d="M563.363,-711.851C541.431,-710.85 503.407,-709.114 477.341,-707.923"/>
<polygon fill="black" stroke="black" points="477.471,-704.426 467.321,-707.466 477.151,-711.418 477.471,-704.426"/>
<text text-anchor="middle" x="507.175" y="-714.444" font-family="Helvetica,Arial,sans-serif" font-size="14.00">&#39;M&#39;</text>
</g>
<!-- l -->
<g id="node4" class="node"><title>l</title>
<ellipse fill="none" stroke="black" cx="879.558" cy="-703.644" rx="18" ry="18"/>
<text text-anchor="middle" x="879.558" y="-699.944" font-family="Helvetica,Arial,sans-serif" font-size="14.00">l</text>
</g>
<!-- u&#45;&gt;l -->
<g id="edge38" class="edge"><title>u&#45;&gt;l</title>
<path fill="none" stroke="black" d="M599.907,-712.121C649.13,-710.624 790.963,-706.309 851.091,-704.48"/>
<polygon fill="black" stroke="black" points="851.438,-707.971 861.327,-704.168 851.225,-700.974 851.438,-707.971"/>
<text text-anchor="middle" x="737.914" y="-714.444" font-family="Helvetica,Arial,sans-serif" font-size="14.00">&#39;L&#39;</text>
</g>
<!-- t -->
<g id="node18" class="node"><title>t</title>
<ellipse fill="none" stroke="black" cx="967.558" cy="-464.644" rx="18" ry="18"/>
<text text-anchor="middle" x="967.558" y="-460.944" font-family="Helvetica,Arial,sans-serif" font-size="14.00">t</text>
</g>
<!-- l&#45;&gt;t -->
<g id="edge39" class="edge"><title>l&#45;&gt;t</title>
<path fill="none" stroke="black" d="M886.606,-686.838C901.347,-645.87 939.229,-540.595 957.038,-491.103"/>
<polygon fill="black" stroke="black" points="960.425,-492.026 960.518,-481.432 953.838,-489.656 960.425,-492.026"/>
<text text-anchor="middle" x="923.558" y="-609.444" font-family="Helvetica,Arial,sans-serif" font-size="14.00">&#39;T&#39;</text>
</g>
<!-- y -->
<g id="node19" class="node"><title>y</title>
<ellipse fill="none" stroke="black" cx="967.558" cy="-699.644" rx="18" ry="18"/>
<text text-anchor="middle" x="967.558" y="-695.944" font-family="Helvetica,Arial,sans-serif" font-size="14.00">y</text>
</g>
<!-- l&#45;&gt;y -->
<g id="edge43" class="edge"><title>l&#45;&gt;y</title>
<path fill="none" stroke="black" d="M897.549,-702.854C909.369,-702.304 925.387,-701.559 939.016,-700.925"/>
<polygon fill="black" stroke="black" points="939.482,-704.407 949.308,-700.446 939.157,-697.415 939.482,-704.407"/>
<text text-anchor="middle" x="923.558" y="-706.444" font-family="Helvetica,Arial,sans-serif" font-size="14.00">&#39;Y&#39;</text>
</g>
<!-- p -->
<g id="node5" class="node"><title>p</title>
<ellipse fill="none" stroke="black" cx="1221.45" cy="-774.644" rx="18" ry="18"/>
<text text-anchor="middle" x="1221.45" y="-770.944" font-family="Helvetica,Arial,sans-serif" font-size="14.00">p</text>
</g>
<!-- p&#45;&gt;l -->
<g id="edge42" class="edge"><title>p&#45;&gt;l</title>
<path fill="none" stroke="black" d="M1203.42,-775.354C1170.58,-776.366 1096.37,-776.913 1035.56,-764.644 980.023,-753.441 967.527,-744.203 915.558,-721.644 912.029,-720.112 908.358,-718.383 904.78,-716.618"/>
<polygon fill="black" stroke="black" points="906.18,-713.403 895.683,-711.971 902.996,-719.637 906.18,-713.403"/>
<text text-anchor="middle" x="1010.56" y="-764.444" font-family="Helvetica,Arial,sans-serif" font-size="14.00">&#39;L&#39;</text>
</g>
<!-- eq -->
<g id="node6" class="node"><title>eq</title>
<ellipse fill="none" stroke="black" cx="312.033" cy="-496.644" rx="20.5982" ry="20.5982"/>
<text text-anchor="middle" x="312.033" y="-492.944" font-family="Helvetica,Arial,sans-serif" font-size="14.00">eq</text>
</g>
<!-- eq&#45;&gt;m -->
<g id="edge36" class="edge"><title>eq&#45;&gt;m</title>
<path fill="none" stroke="black" d="M320.411,-516.21C331.451,-544.232 353.943,-596.806 381.479,-636.644 394.405,-655.346 412.226,-673.97 426.069,-687.301"/>
<polygon fill="black" stroke="black" points="424.019,-690.179 433.693,-694.499 428.824,-685.089 424.019,-690.179"/>
<text text-anchor="middle" x="396.479" y="-675.444" font-family="Helvetica,Arial,sans-serif" font-size="14.00">&#39;M&#39;</text>
</g>
<!-- s -->
<g id="node7" class="node"><title>s</title>
<ellipse fill="none" stroke="black" cx="448.327" cy="-640.644" rx="18" ry="18"/>
<text text-anchor="middle" x="448.327" y="-636.944" font-family="Helvetica,Arial,sans-serif" font-size="14.00">s</text>
</g>
<!-- eq&#45;&gt;s -->
<g id="edge25" class="edge"><title>eq&#45;&gt;s</title>
<path fill="none" stroke="black" d="M323.381,-514.575C335.633,-534.896 357.435,-568.346 381.479,-592.644 394.172,-605.472 410.565,-617.434 423.819,-626.208"/>
<polygon fill="black" stroke="black" points="422.108,-629.269 432.41,-631.744 425.9,-623.385 422.108,-629.269"/>
<text text-anchor="middle" x="396.479" y="-621.444" font-family="Helvetica,Arial,sans-serif" font-size="14.00">&#39;S&#39;</text>
</g>
<!-- d -->
<g id="node8" class="node"><title>d</title>
<ellipse fill="none" stroke="black" cx="1221.45" cy="-563.644" rx="18" ry="18"/>
<text text-anchor="middle" x="1221.45" y="-559.944" font-family="Helvetica,Arial,sans-serif" font-size="14.00">d</text>
</g>
<!-- eq&#45;&gt;d -->
<g id="edge45" class="edge"><title>eq&#45;&gt;d</title>
<path fill="none" stroke="black" d="M330.701,-506.187C355.847,-518.855 403.751,-539.644 447.327,-539.644 447.327,-539.644 447.327,-539.644 1011.56,-539.644 1077.43,-539.644 1154.23,-551.569 1193.82,-558.608"/>
<polygon fill="black" stroke="black" points="1193.27,-562.065 1203.74,-560.407 1194.52,-555.178 1193.27,-562.065"/>
<text text-anchor="middle" x="834.558" y="-543.444" font-family="Helvetica,Arial,sans-serif" font-size="14.00">&#39;D&#39;</text>
</g>
<!-- i -->
<g id="node9" class="node"><title>i</title>
<ellipse fill="none" stroke="black" cx="1093.5" cy="-603.644" rx="18" ry="18"/>
<text text-anchor="middle" x="1093.5" y="-599.944" font-family="Helvetica,Arial,sans-serif" font-size="14.00">i</text>
</g>
<!-- eq&#45;&gt;i -->
<g id="edge8" class="edge"><title>eq&#45;&gt;i</title>
<path fill="none" stroke="black" d="M326.203,-512.085C338.839,-525.693 359.24,-544.702 381.479,-553.644 508.981,-604.912 950.445,-604.856 1065.11,-603.943"/>
<polygon fill="black" stroke="black" points="1065.49,-607.44 1075.46,-603.851 1065.43,-600.44 1065.49,-607.44"/>
<text text-anchor="middle" x="737.914" y="-605.444" font-family="Helvetica,Arial,sans-serif" font-size="14.00">&#39;I&#39;</text>
</g>
<!-- e -->
<g id="node13" class="node"><title>e</title>
<ellipse fill="none" stroke="black" cx="1324.7" cy="-746.644" rx="18" ry="18"/>
<text text-anchor="middle" x="1324.7" y="-742.944" font-family="Helvetica,Arial,sans-serif" font-size="14.00">e</text>
</g>
<!-- eq&#45;&gt;e -->
<g id="edge5" class="edge"><title>eq&#45;&gt;e</title>
<path fill="none" stroke="black" d="M316.822,-516.974C330.651,-588.125 381.087,-821.644 447.327,-821.644 447.327,-821.644 447.327,-821.644 1222.45,-821.644 1258.14,-821.644 1289.46,-791.18 1307.49,-769.083"/>
<polygon fill="black" stroke="black" points="1310.32,-771.138 1313.73,-761.105 1304.81,-766.826 1310.32,-771.138"/>
<text text-anchor="middle" x="879.558" y="-825.444" font-family="Helvetica,Arial,sans-serif" font-size="14.00">&#39;E&#39;</text>
</g>
<!-- a -->
<g id="node14" class="node"><title>a</title>
<ellipse fill="none" stroke="black" cx="448.327" cy="-430.644" rx="18" ry="18"/>
<text text-anchor="middle" x="448.327" y="-426.944" font-family="Helvetica,Arial,sans-serif" font-size="14.00">a</text>
</g>
<!-- eq&#45;&gt;a -->
<g id="edge52" class="edge"><title>eq&#45;&gt;a</title>
<path fill="none" stroke="black" d="M330.556,-486.665C344.264,-478.982 363.887,-468.256 381.479,-459.644 394.758,-453.144 409.834,-446.455 422.206,-441.142"/>
<polygon fill="black" stroke="black" points="423.631,-444.34 431.464,-437.206 420.891,-437.898 423.631,-444.34"/>
<text text-anchor="middle" x="396.479" y="-463.444" font-family="Helvetica,Arial,sans-serif" font-size="14.00">&#39;A&#39;</text>
</g>
<!-- n -->
<g id="node15" class="node"><title>n</title>
<ellipse fill="none" stroke="black" cx="581.723" cy="-297.644" rx="18" ry="18"/>
<text text-anchor="middle" x="581.723" y="-293.944" font-family="Helvetica,Arial,sans-serif" font-size="14.00">n</text>
</g>
<!-- eq&#45;&gt;n -->
<g id="edge56" class="edge"><title>eq&#45;&gt;n</title>
<path fill="none" stroke="black" d="M331.294,-487.894C342.397,-481.602 355.861,-472.046 363.479,-459.644 389.177,-417.806 350.962,-389.109 381.479,-350.644 422.891,-298.446 509.428,-294.136 553.567,-295.67"/>
<polygon fill="black" stroke="black" points="553.417,-299.167 563.572,-296.145 553.749,-292.175 553.417,-299.167"/>
<text text-anchor="middle" x="448.327" y="-319.444" font-family="Helvetica,Arial,sans-serif" font-size="14.00">&#39;N&#39;</text>
</g>
<!-- c -->
<g id="node16" class="node"><title>c</title>
<ellipse fill="none" stroke="black" cx="737.914" cy="-359.644" rx="18" ry="18"/>
<text text-anchor="middle" x="737.914" y="-355.944" font-family="Helvetica,Arial,sans-serif" font-size="14.00">c</text>
</g>
<!-- eq&#45;&gt;c -->
<g id="edge29" class="edge"><title>eq&#45;&gt;c</title>
<path fill="none" stroke="black" d="M329.782,-485.148C339.793,-478.084 352.633,-468.684 363.479,-459.644 393.029,-435.014 394.651,-419.983 429.479,-403.644 524.894,-358.882 653.838,-356.824 709.481,-358.353"/>
<polygon fill="black" stroke="black" points="709.488,-361.855 719.601,-358.695 709.725,-354.859 709.488,-361.855"/>
<text text-anchor="middle" x="507.175" y="-386.444" font-family="Helvetica,Arial,sans-serif" font-size="14.00">&#39;C&#39;</text>
</g>
<!-- o -->
<g id="node17" class="node"><title>o</title>
<ellipse fill="none" stroke="black" cx="879.558" cy="-276.644" rx="18" ry="18"/>
<text text-anchor="middle" x="879.558" y="-272.944" font-family="Helvetica,Arial,sans-serif" font-size="14.00">o</text>
</g>
<!-- eq&#45;&gt;o -->
<g id="edge11" class="edge"><title>eq&#45;&gt;o</title>
<path fill="none" stroke="black" d="M331.188,-488.12C342.397,-481.866 356.018,-472.267 363.479,-459.644 394.952,-406.397 365.167,-381.307 381.479,-321.644 401.11,-249.841 372.888,-167.644 447.327,-167.644 447.327,-167.644 447.327,-167.644 643.27,-167.644 729.07,-167.644 817.525,-228.057 857.128,-258.931"/>
<polygon fill="black" stroke="black" points="855.247,-261.907 865.253,-265.39 859.603,-256.427 855.247,-261.907"/>
<text text-anchor="middle" x="581.723" y="-171.444" font-family="Helvetica,Arial,sans-serif" font-size="14.00">&#39;O&#39;</text>
</g>
<!-- 2 -->
<g id="node24" class="node"><title>2</title>
<ellipse fill="none" stroke="black" cx="448.327" cy="-101.644" rx="18" ry="18"/>
<text text-anchor="middle" x="448.327" y="-97.9442" font-family="Helvetica,Arial,sans-serif" font-size="14.00">2</text>
</g>
<!-- eq&#45;&gt;2 -->
<g id="edge20" class="edge"><title>eq&#45;&gt;2</title>
<path fill="none" stroke="black" d="M331.252,-488.435C342.639,-482.259 356.436,-472.628 363.479,-459.644 397.543,-396.842 343.683,-199.274 381.479,-138.644 390.298,-124.496 406.599,-115.275 420.775,-109.576"/>
<polygon fill="black" stroke="black" points="422.37,-112.721 430.584,-106.03 419.99,-106.139 422.37,-112.721"/>
<text text-anchor="middle" x="396.479" y="-142.444" font-family="Helvetica,Arial,sans-serif" font-size="14.00">[A&#45;Z]</text>
</g>
<!-- g -->
<g id="node40" class="node"><title>g</title>
<ellipse fill="none" stroke="black" cx="507.175" cy="-496.644" rx="18" ry="18"/>
<ellipse fill="none" stroke="black" cx="507.175" cy="-496.644" rx="22" ry="22"/>
<text text-anchor="middle" x="507.175" y="-492.944" font-family="Helvetica,Arial,sans-serif" font-size="14.00">g</text>
</g>
<!-- eq&#45;&gt;g -->
<g id="edge14" class="edge"><title>eq&#45;&gt;g</title>
<path fill="none" stroke="black" d="M332.975,-496.644C366.684,-496.644 435.159,-496.644 475.174,-496.644"/>
<polygon fill="black" stroke="black" points="475.174,-500.144 485.174,-496.644 475.174,-493.144 475.174,-500.144"/>
<text text-anchor="middle" x="396.479" y="-500.444" font-family="Helvetica,Arial,sans-serif" font-size="14.00">G</text>
</g>
<!-- s&#45;&gt;u -->
<g id="edge26" class="edge"><title>s&#45;&gt;u</title>
<path fill="none" stroke="black" d="M464.4,-648.903C486.952,-661.261 529.698,-684.684 556.618,-699.436"/>
<polygon fill="black" stroke="black" points="554.969,-702.523 565.421,-704.259 558.333,-696.384 554.969,-702.523"/>
<text text-anchor="middle" x="507.175" y="-687.444" font-family="Helvetica,Arial,sans-serif" font-size="14.00">&#39;U&#39;</text>
</g>
<!-- d&#45;&gt;i -->
<g id="edge46" class="edge"><title>d&#45;&gt;i</title>
<path fill="none" stroke="black" d="M1203.19,-562.043C1193.18,-561.593 1180.43,-561.843 1169.45,-564.644 1150.79,-569.402 1131.57,-579.532 1117.26,-588.276"/>
<polygon fill="black" stroke="black" points="1115.2,-585.441 1108.62,-593.751 1118.94,-591.353 1115.2,-585.441"/>
<text text-anchor="middle" x="1177.45" y="-568.444" font-family="Helvetica,Arial,sans-serif" font-size="14.00">&#39;I&#39;</text>
</g>
<!-- d&#45;&gt;e -->
<g id="edge50" class="edge"><title>d&#45;&gt;e</title>
<path fill="none" stroke="black" d="M1231.08,-579.247C1248.72,-611.119 1288.99,-683.912 1310.14,-722.15"/>
<polygon fill="black" stroke="black" points="1307.18,-724.026 1315.09,-731.081 1313.31,-720.637 1307.18,-724.026"/>
<text text-anchor="middle" x="1265.45" y="-659.444" font-family="Helvetica,Arial,sans-serif" font-size="14.00">&#39;E&#39;</text>
</g>
<!-- AND -->
<g id="node28" class="node"><title>AND</title>
<ellipse fill="none" stroke="black" cx="1324.7" cy="-563.644" rx="29.4667" ry="29.4667"/>
<ellipse fill="none" stroke="black" cx="1324.7" cy="-563.644" rx="33.4967" ry="33.4967"/>
<text text-anchor="middle" x="1324.7" y="-559.944" font-family="Helvetica,Arial,sans-serif" font-size="14.00">AND</text>
</g>
<!-- d&#45;&gt;AND -->
<g id="edge55" class="edge"><title>d&#45;&gt;AND</title>
<path fill="none" stroke="black" d="M1239.62,-563.644C1250.97,-563.644 1266.38,-563.644 1280.91,-563.644"/>
<polygon fill="black" stroke="black" points="1281.26,-567.144 1291.26,-563.644 1281.26,-560.144 1281.26,-567.144"/>
<text text-anchor="middle" x="1265.45" y="-567.444" font-family="Helvetica,Arial,sans-serif" font-size="14.00">&#39;(&#39;</text>
</g>
<!-- i&#45;&gt;p -->
<g id="edge41" class="edge"><title>i&#45;&gt;p</title>
<path fill="none" stroke="black" d="M1111.25,-607.302C1124.17,-611.002 1141.47,-618.033 1151.45,-630.644 1175.15,-660.581 1152.57,-680.395 1169.45,-714.644 1177.03,-730.039 1189.44,-744.763 1200.12,-755.772"/>
<polygon fill="black" stroke="black" points="1197.93,-758.531 1207.5,-763.088 1202.86,-753.561 1197.93,-758.531"/>
<text text-anchor="middle" x="1177.45" y="-742.444" font-family="Helvetica,Arial,sans-serif" font-size="14.00">&#39;P&#39;</text>
</g>
<!-- i&#45;&gt;d -->
<g id="edge49" class="edge"><title>i&#45;&gt;d</title>
<path fill="none" stroke="black" d="M1111.19,-600.141C1129.63,-596.064 1160.08,-588.716 1185.45,-579.644 1188.82,-578.438 1192.32,-577.035 1195.74,-575.571"/>
<polygon fill="black" stroke="black" points="1197.33,-578.694 1205,-571.394 1194.45,-572.312 1197.33,-578.694"/>
<text text-anchor="middle" x="1177.45" y="-588.444" font-family="Helvetica,Arial,sans-serif" font-size="14.00">&#39;D&#39;</text>
</g>
<!-- f -->
<g id="node11" class="node"><title>f</title>
<ellipse fill="none" stroke="black" cx="1221.45" cy="-717.644" rx="18" ry="18"/>
<text text-anchor="middle" x="1221.45" y="-713.944" font-family="Helvetica,Arial,sans-serif" font-size="14.00">f</text>
</g>
<!-- i&#45;&gt;f -->
<g id="edge9" class="edge"><title>i&#45;&gt;f</title>
<path fill="none" stroke="black" d="M1111.02,-607.802C1123.64,-611.756 1140.64,-618.884 1151.45,-630.644 1166.87,-647.417 1155.87,-660.347 1169.45,-678.644 1176.77,-688.513 1187.25,-697.115 1196.8,-703.711"/>
<polygon fill="black" stroke="black" points="1194.91,-706.656 1205.2,-709.183 1198.73,-700.791 1194.91,-706.656"/>
<text text-anchor="middle" x="1177.45" y="-699.444" font-family="Helvetica,Arial,sans-serif" font-size="14.00">&#39;F&#39;</text>
</g>
<!-- v -->
<g id="node12" class="node"><title>v</title>
<ellipse fill="none" stroke="black" cx="1221.45" cy="-651.644" rx="18" ry="18"/>
<text text-anchor="middle" x="1221.45" y="-647.944" font-family="Helvetica,Arial,sans-serif" font-size="14.00">v</text>
</g>
<!-- i&#45;&gt;v -->
<g id="edge47" class="edge"><title>i&#45;&gt;v</title>
<path fill="none" stroke="black" d="M1110.97,-608.927C1123.07,-613.377 1139.43,-620.628 1151.45,-630.644 1161.97,-639.409 1157.26,-649.402 1169.45,-655.644 1176.9,-659.459 1185.77,-659.924 1194.01,-658.988"/>
<polygon fill="black" stroke="black" points="1194.73,-662.415 1203.96,-657.2 1193.5,-655.525 1194.73,-662.415"/>
<text text-anchor="middle" x="1177.45" y="-663.444" font-family="Helvetica,Arial,sans-serif" font-size="14.00">&#39;V&#39;</text>
</g>
<!-- r -->
<g id="node10" class="node"><title>r</title>
<ellipse fill="none" stroke="black" cx="967.558" cy="-209.644" rx="18" ry="18"/>
<text text-anchor="middle" x="967.558" y="-205.944" font-family="Helvetica,Arial,sans-serif" font-size="14.00">r</text>
</g>
<!-- OR -->
<g id="node32" class="node"><title>OR</title>
<ellipse fill="none" stroke="black" cx="1093.5" cy="-202.644" rx="24.8692" ry="24.8692"/>
<ellipse fill="none" stroke="black" cx="1093.5" cy="-202.644" rx="28.897" ry="28.897"/>
<text text-anchor="middle" x="1093.5" y="-198.944" font-family="Helvetica,Arial,sans-serif" font-size="14.00">OR</text>
</g>
<!-- r&#45;&gt;OR -->
<g id="edge13" class="edge"><title>r&#45;&gt;OR</title>
<path fill="none" stroke="black" d="M985.792,-208.671C1003.44,-207.674 1031.46,-206.092 1054.36,-204.798"/>
<polygon fill="black" stroke="black" points="1054.68,-208.286 1064.47,-204.228 1054.28,-201.297 1054.68,-208.286"/>
<text text-anchor="middle" x="1010.56" y="-211.444" font-family="Helvetica,Arial,sans-serif" font-size="14.00">&#39;(&#39;</text>
</g>
<!-- IF -->
<g id="node33" class="node"><title>IF</title>
<ellipse fill="none" stroke="black" cx="1324.7" cy="-854.644" rx="18.724" ry="18.724"/>
<ellipse fill="none" stroke="black" cx="1324.7" cy="-854.644" rx="22.6977" ry="22.6977"/>
<text text-anchor="middle" x="1324.7" y="-850.944" font-family="Helvetica,Arial,sans-serif" font-size="14.00">IF</text>
</g>
<!-- f&#45;&gt;IF -->
<g id="edge10" class="edge"><title>f&#45;&gt;IF</title>
<path fill="none" stroke="black" d="M1232.9,-731.79C1249.66,-754.466 1282.81,-799.321 1304.08,-828.102"/>
<polygon fill="black" stroke="black" points="1301.51,-830.514 1310.27,-836.476 1307.14,-826.354 1301.51,-830.514"/>
<text text-anchor="middle" x="1265.45" y="-790.444" font-family="Helvetica,Arial,sans-serif" font-size="14.00">&#39;(&#39;</text>
</g>
<!-- v&#45;&gt;i -->
<g id="edge48" class="edge"><title>v&#45;&gt;i</title>
<path fill="none" stroke="black" d="M1204.5,-644.582C1198.55,-642.008 1191.72,-639.123 1185.45,-636.644 1163.67,-628.035 1138.64,-619.016 1120.36,-612.586"/>
<polygon fill="black" stroke="black" points="1121.3,-609.208 1110.71,-609.211 1118.99,-615.816 1121.3,-609.208"/>
<text text-anchor="middle" x="1177.45" y="-640.444" font-family="Helvetica,Arial,sans-serif" font-size="14.00">&#39;I&#39;</text>
</g>
<!-- q -->
<g id="node20" class="node"><title>q</title>
<ellipse fill="none" stroke="black" cx="1456.24" cy="-807.644" rx="18" ry="18"/>
<text text-anchor="middle" x="1456.24" y="-803.944" font-family="Helvetica,Arial,sans-serif" font-size="14.00">q</text>
</g>
<!-- e&#45;&gt;q -->
<g id="edge6" class="edge"><title>e&#45;&gt;q</title>
<path fill="none" stroke="black" d="M1341.32,-754.002C1363.4,-764.399 1403.96,-783.497 1430.25,-795.877"/>
<polygon fill="black" stroke="black" points="1429.02,-799.166 1439.56,-800.26 1432,-792.833 1429.02,-799.166"/>
<text text-anchor="middle" x="1384.94" y="-783.444" font-family="Helvetica,Arial,sans-serif" font-size="14.00">&#39;Q&#39;</text>
</g>
<!-- DIVIDE -->
<g id="node27" class="node"><title>DIVIDE</title>
<ellipse fill="none" stroke="black" cx="1456.24" cy="-727.644" rx="40.1121" ry="40.1121"/>
<ellipse fill="none" stroke="black" cx="1456.24" cy="-727.644" rx="44.0938" ry="44.0938"/>
<text text-anchor="middle" x="1456.24" y="-723.944" font-family="Helvetica,Arial,sans-serif" font-size="14.00">DIVIDE</text>
</g>
<!-- e&#45;&gt;DIVIDE -->
<g id="edge51" class="edge"><title>e&#45;&gt;DIVIDE</title>
<path fill="none" stroke="black" d="M1342.63,-744.16C1357.85,-741.929 1381.02,-738.53 1402.4,-735.394"/>
<polygon fill="black" stroke="black" points="1403,-738.844 1412.38,-733.93 1401.98,-731.918 1403,-738.844"/>
<text text-anchor="middle" x="1384.94" y="-743.444" font-family="Helvetica,Arial,sans-serif" font-size="14.00">&#39;(&#39;</text>
</g>
<!-- a&#45;&gt;n -->
<g id="edge53" class="edge"><title>a&#45;&gt;n</title>
<path fill="none" stroke="black" d="M450.725,-412.77C453.463,-389.921 461.525,-350.58 485.175,-327.644 495.059,-318.059 529.282,-308.852 553.947,-303.223"/>
<polygon fill="black" stroke="black" points="554.824,-306.614 563.834,-301.04 553.314,-299.779 554.824,-306.614"/>
<text text-anchor="middle" x="507.175" y="-331.444" font-family="Helvetica,Arial,sans-serif" font-size="14.00">&#39;N&#39;</text>
</g>
<!-- a&#45;&gt;t -->
<g id="edge34" class="edge"><title>a&#45;&gt;t</title>
<path fill="none" stroke="black" d="M466.536,-431.775C542.327,-436.758 846.708,-456.766 939.542,-462.868"/>
<polygon fill="black" stroke="black" points="939.339,-466.362 949.547,-463.526 939.798,-459.377 939.339,-466.362"/>
<text text-anchor="middle" x="737.914" y="-458.444" font-family="Helvetica,Arial,sans-serif" font-size="14.00">&#39;T&#39;</text>
</g>
<!-- n&#45;&gt;d -->
<g id="edge54" class="edge"><title>n&#45;&gt;d</title>
<path fill="none" stroke="black" d="M595.361,-285.462C634.175,-249.393 756.432,-145.644 878.558,-145.644 878.558,-145.644 878.558,-145.644 1094.5,-145.644 1121.18,-145.644 1134.06,-144.411 1151.45,-164.644 1199.59,-220.653 1215.19,-453.513 1219.23,-535.185"/>
<polygon fill="black" stroke="black" points="1215.76,-535.848 1219.73,-545.671 1222.75,-535.517 1215.76,-535.848"/>
<text text-anchor="middle" x="923.558" y="-149.444" font-family="Helvetica,Arial,sans-serif" font-size="14.00">&#39;D&#39;</text>
</g>
<!-- n&#45;&gt;c -->
<g id="edge32" class="edge"><title>n&#45;&gt;c</title>
<path fill="none" stroke="black" d="M598.643,-304.046C625.304,-314.766 679.207,-336.44 711.269,-349.332"/>
<polygon fill="black" stroke="black" points="710.265,-352.701 720.849,-353.185 712.877,-346.206 710.265,-352.701"/>
<text text-anchor="middle" x="642.27" y="-329.444" font-family="Helvetica,Arial,sans-serif" font-size="14.00">&#39;C&#39;</text>
</g>
<!-- n&#45;&gt;o -->
<g id="edge57" class="edge"><title>n&#45;&gt;o</title>
<path fill="none" stroke="black" d="M597.953,-289.536C614.659,-281.14 642.527,-268.572 668.27,-263.644 733.403,-251.175 811.751,-262.887 851.929,-270.784"/>
<polygon fill="black" stroke="black" points="851.251,-274.218 861.749,-272.79 852.652,-267.36 851.251,-274.218"/>
<text text-anchor="middle" x="737.914" y="-267.444" font-family="Helvetica,Arial,sans-serif" font-size="14.00">&#39;O&#39;</text>
</g>
<!-- c&#45;&gt;a -->
<g id="edge33" class="edge"><title>c&#45;&gt;a</title>
<path fill="none" stroke="black" d="M720.163,-363.78C672.255,-375.607 534.373,-409.648 475.972,-424.066"/>
<polygon fill="black" stroke="black" points="474.902,-420.725 466.032,-426.52 476.579,-427.521 474.902,-420.725"/>
<text text-anchor="middle" x="581.723" y="-410.444" font-family="Helvetica,Arial,sans-serif" font-size="14.00">&#39;A&#39;</text>
</g>
<!-- c&#45;&gt;o -->
<g id="edge30" class="edge"><title>c&#45;&gt;o</title>
<path fill="none" stroke="black" d="M755.69,-355.355C777.408,-349.247 815.761,-336.527 843.558,-316.644 850.418,-311.737 856.842,-305.235 862.266,-298.902"/>
<polygon fill="black" stroke="black" points="865.002,-301.084 868.559,-291.103 859.555,-296.687 865.002,-301.084"/>
<text text-anchor="middle" x="834.558" y="-330.444" font-family="Helvetica,Arial,sans-serif" font-size="14.00">&#39;O&#39;</text>
</g>
<!-- o&#45;&gt;r -->
<g id="edge12" class="edge"><title>o&#45;&gt;r</title>
<path fill="none" stroke="black" d="M894.376,-265.879C907.917,-255.33 928.768,-239.086 944.584,-226.763"/>
<polygon fill="black" stroke="black" points="947.038,-229.289 952.775,-220.382 942.736,-223.767 947.038,-229.289"/>
<text text-anchor="middle" x="923.558" y="-253.444" font-family="Helvetica,Arial,sans-serif" font-size="14.00">&#39;R&#39;</text>
</g>
<!-- o&#45;&gt;n -->
<g id="edge31" class="edge"><title>o&#45;&gt;n</title>
<path fill="none" stroke="black" d="M861.327,-277.867C812.044,-281.366 670.208,-291.434 610.132,-295.699"/>
<polygon fill="black" stroke="black" points="609.634,-292.225 599.907,-296.424 610.129,-299.207 609.634,-292.225"/>
<text text-anchor="middle" x="737.914" y="-295.444" font-family="Helvetica,Arial,sans-serif" font-size="14.00">&#39;N&#39;</text>
</g>
<!-- o&#45;&gt;t -->
<g id="edge58" class="edge"><title>o&#45;&gt;t</title>
<path fill="none" stroke="black" d="M887.891,-292.673C902.869,-325.417 937.078,-400.198 955.047,-439.481"/>
<polygon fill="black" stroke="black" points="951.902,-441.018 959.244,-448.656 958.267,-438.106 951.902,-441.018"/>
<text text-anchor="middle" x="923.558" y="-391.444" font-family="Helvetica,Arial,sans-serif" font-size="14.00">&#39;T&#39;</text>
</g>
<!-- t&#45;&gt;i -->
<g id="edge40" class="edge"><title>t&#45;&gt;i</title>
<path fill="none" stroke="black" d="M980.219,-477.721C1001.81,-501.937 1048.17,-553.931 1074.06,-582.963"/>
<polygon fill="black" stroke="black" points="1071.52,-585.367 1080.78,-590.501 1076.74,-580.708 1071.52,-585.367"/>
<text text-anchor="middle" x="1010.56" y="-521.444" font-family="Helvetica,Arial,sans-serif" font-size="14.00">&#39;I&#39;</text>
</g>
<!-- NOT -->
<g id="node30" class="node"><title>NOT</title>
<ellipse fill="none" stroke="black" cx="1093.5" cy="-283.644" rx="29.8071" ry="29.8071"/>
<ellipse fill="none" stroke="black" cx="1093.5" cy="-283.644" rx="33.795" ry="33.795"/>
<text text-anchor="middle" x="1093.5" y="-279.944" font-family="Helvetica,Arial,sans-serif" font-size="14.00">NOT</text>
</g>
<!-- t&#45;&gt;NOT -->
<g id="edge59" class="edge"><title>t&#45;&gt;NOT</title>
<path fill="none" stroke="black" d="M973.941,-447.471C983.214,-419.825 1004.27,-364.706 1035.56,-326.644 1041.33,-319.628 1048.46,-313.104 1055.7,-307.365"/>
<polygon fill="black" stroke="black" points="1058.28,-309.806 1064.19,-301.007 1054.09,-304.205 1058.28,-309.806"/>
<text text-anchor="middle" x="1010.56" y="-380.444" font-family="Helvetica,Arial,sans-serif" font-size="14.00">&#39;(&#39;</text>
</g>
<!-- GT -->
<g id="node31" class="node"><title>GT</title>
<ellipse fill="none" stroke="black" cx="1093.5" cy="-484.644" rx="23.3111" ry="23.3111"/>
<ellipse fill="none" stroke="black" cx="1093.5" cy="-484.644" rx="27.2962" ry="27.2962"/>
<text text-anchor="middle" x="1093.5" y="-480.944" font-family="Helvetica,Arial,sans-serif" font-size="14.00">GT</text>
</g>
<!-- t&#45;&gt;GT -->
<g id="edge16" class="edge"><title>t&#45;&gt;GT</title>
<path fill="none" stroke="black" d="M985.532,-467.383C1003.67,-470.309 1032.95,-475.035 1056.3,-478.803"/>
<polygon fill="black" stroke="black" points="1055.79,-482.266 1066.22,-480.404 1056.91,-475.355 1055.79,-482.266"/>
<text text-anchor="middle" x="1010.56" y="-476.444" font-family="Helvetica,Arial,sans-serif" font-size="14.00">&#39;(&#39;</text>
</g>
<!-- CONCAT -->
<g id="node34" class="node"><title>CONCAT</title>
<ellipse fill="none" stroke="black" cx="1093.5" cy="-387.644" rx="48.1843" ry="48.1843"/>
<ellipse fill="none" stroke="black" cx="1093.5" cy="-387.644" rx="52.1916" ry="52.1916"/>
<text text-anchor="middle" x="1093.5" y="-383.944" font-family="Helvetica,Arial,sans-serif" font-size="14.00">CONCAT</text>
</g>
<!-- t&#45;&gt;CONCAT -->
<g id="edge35" class="edge"><title>t&#45;&gt;CONCAT</title>
<path fill="none" stroke="black" d="M983.263,-455.509C997.346,-446.76 1019.45,-433.029 1040.1,-420.201"/>
<polygon fill="black" stroke="black" points="1042.18,-423.025 1048.83,-414.775 1038.49,-417.079 1042.18,-423.025"/>
<text text-anchor="middle" x="1010.56" y="-446.444" font-family="Helvetica,Arial,sans-serif" font-size="14.00">&#39;(&#39;</text>
</g>
<!-- MULTIPLY -->
<g id="node26" class="node"><title>MULTIPLY</title>
<ellipse fill="none" stroke="black" cx="1093.5" cy="-697.644" rx="53.8943" ry="53.8943"/>
<ellipse fill="none" stroke="black" cx="1093.5" cy="-697.644" rx="57.8905" ry="57.8905"/>
<text text-anchor="middle" x="1093.5" y="-693.944" font-family="Helvetica,Arial,sans-serif" font-size="14.00">MULTIPLY</text>
</g>
<!-- y&#45;&gt;MULTIPLY -->
<g id="edge44" class="edge"><title>y&#45;&gt;MULTIPLY</title>
<path fill="none" stroke="black" d="M985.792,-699.366C996.331,-699.196 1010.57,-698.966 1025.2,-698.73"/>
<polygon fill="black" stroke="black" points="1025.41,-702.227 1035.35,-698.566 1025.3,-695.228 1025.41,-702.227"/>
<text text-anchor="middle" x="1010.56" y="-703.444" font-family="Helvetica,Arial,sans-serif" font-size="14.00">&#39;(&#39;</text>
</g>
<!-- EQ -->
<g id="node29" class="node"><title>EQ</title>
<ellipse fill="none" stroke="black" cx="1575.58" cy="-807.644" rx="24.089" ry="24.089"/>
<ellipse fill="none" stroke="black" cx="1575.58" cy="-807.644" rx="28.0958" ry="28.0958"/>
<text text-anchor="middle" x="1575.58" y="-803.944" font-family="Helvetica,Arial,sans-serif" font-size="14.00">EQ</text>
</g>
<!-- q&#45;&gt;EQ -->
<g id="edge7" class="edge"><title>q&#45;&gt;EQ</title>
<path fill="none" stroke="black" d="M1474.3,-807.644C1490.72,-807.644 1516.11,-807.644 1537.23,-807.644"/>
<polygon fill="black" stroke="black" points="1537.5,-811.144 1547.5,-807.644 1537.5,-804.144 1537.5,-811.144"/>
<text text-anchor="middle" x="1524.04" y="-811.444" font-family="Helvetica,Arial,sans-serif" font-size="14.00">&#39;(&#39;</text>
</g>
<!-- paren&#45;&gt;eq -->
<g id="edge24" class="edge"><title>paren&#45;&gt;eq</title>
<path fill="none" stroke="black" d="M209.779,-496.644C231.447,-496.644 259.776,-496.644 280.957,-496.644"/>
<polygon fill="black" stroke="black" points="281.015,-500.144 291.015,-496.644 281.015,-493.144 281.015,-500.144"/>
<text text-anchor="middle" x="235.087" y="-500.444" font-family="Helvetica,Arial,sans-serif" font-size="14.00">&#39;=&#39;</text>
</g>
<!-- 0&#45;&gt;0 -->
<g id="edge18" class="edge"><title>0&#45;&gt;0</title>
<path fill="none" stroke="black" d="M166.627,-409.811C163.653,-420.308 166.924,-430.644 176.44,-430.644 182.685,-430.644 186.24,-426.193 187.106,-420.166"/>
<polygon fill="black" stroke="black" points="190.562,-419.49 186.253,-409.811 183.586,-420.064 190.562,-419.49"/>
<text text-anchor="middle" x="176.44" y="-434.444" font-family="Helvetica,Arial,sans-serif" font-size="14.00">([a&#45;zA&#45;Z0&#45;9]|[a&#45;zA&#45;Z])</text>
</g>
<!-- STRING -->
<g id="node37" class="node"><title>STRING</title>
<ellipse fill="none" stroke="black" cx="312.033" cy="-402.644" rx="44.3766" ry="44.3766"/>
<ellipse fill="none" stroke="black" cx="312.033" cy="-402.644" rx="48.393" ry="48.393"/>
<text text-anchor="middle" x="312.033" y="-398.944" font-family="Helvetica,Arial,sans-serif" font-size="14.00">STRING</text>
</g>
<!-- 0&#45;&gt;STRING -->
<g id="edge19" class="edge"><title>0&#45;&gt;STRING</title>
<path fill="none" stroke="black" d="M194.631,-395.674C209.658,-396.574 232.358,-397.933 253.733,-399.213"/>
<polygon fill="black" stroke="black" points="253.562,-402.709 263.753,-399.813 253.98,-395.721 253.562,-402.709"/>
<text text-anchor="middle" x="235.087" y="-402.444" font-family="Helvetica,Arial,sans-serif" font-size="14.00">&#39;</text>
</g>
<!-- 1 -->
<g id="node23" class="node"><title>1</title>
<ellipse fill="none" stroke="black" cx="581.723" cy="-75.6442" rx="18" ry="18"/>
<text text-anchor="middle" x="581.723" y="-71.9442" font-family="Helvetica,Arial,sans-serif" font-size="14.00">1</text>
</g>
<!-- 1&#45;&gt;1 -->
<g id="edge22" class="edge"><title>1&#45;&gt;1</title>
<path fill="none" stroke="black" d="M571.571,-90.8108C568.495,-101.308 571.879,-111.644 581.723,-111.644 588.183,-111.644 591.86,-107.193 592.756,-101.166"/>
<polygon fill="black" stroke="black" points="596.21,-100.478 591.874,-90.8108 589.236,-101.072 596.21,-100.478"/>
<text text-anchor="middle" x="581.723" y="-115.444" font-family="Helvetica,Arial,sans-serif" font-size="14.00">[0&#45;9]</text>
</g>
<!-- INDENTIFIER -->
<g id="node38" class="node"><title>INDENTIFIER</title>
<ellipse fill="none" stroke="black" cx="737.914" cy="-69.6442" rx="65.7804" ry="65.7804"/>
<ellipse fill="none" stroke="black" cx="737.914" cy="-69.6442" rx="69.7886" ry="69.7886"/>
<text text-anchor="middle" x="737.914" y="-65.9442" font-family="Helvetica,Arial,sans-serif" font-size="14.00">INDENTIFIER</text>
</g>
<!-- 1&#45;&gt;INDENTIFIER -->
<g id="edge23" class="edge"><title>1&#45;&gt;INDENTIFIER</title>
<path fill="none" stroke="black" d="M599.813,-74.9791C614.228,-74.4182 635.968,-73.5723 657.913,-72.7183"/>
<polygon fill="black" stroke="black" points="658.129,-76.2127 667.985,-72.3264 657.857,-69.218 658.129,-76.2127"/>
<text text-anchor="middle" x="642.27" y="-77.4442" font-family="Helvetica,Arial,sans-serif" font-size="14.00">&#39;</text>
</g>
<!-- 2&#45;&gt;1 -->
<g id="edge21" class="edge"><title>2&#45;&gt;1</title>
<path fill="none" stroke="black" d="M466.236,-98.2984C488.41,-93.9106 527.573,-86.1612 553.836,-80.9644"/>
<polygon fill="black" stroke="black" points="554.748,-84.3518 563.879,-78.9772 553.39,-77.4849 554.748,-84.3518"/>
<text text-anchor="middle" x="507.175" y="-98.4442" font-family="Helvetica,Arial,sans-serif" font-size="14.00">[0&#45;9]</text>
</g>
<!-- INT&#45;&gt;INT -->
<g id="edge2" class="edge"><title>INT&#45;&gt;INT</title>
<path fill="none" stroke="black" d="M165.631,-321.517C165.021,-332.295 168.624,-341.342 176.44,-341.342 181.57,-341.342 184.884,-337.446 186.385,-331.721"/>
<polygon fill="black" stroke="black" points="189.892,-331.777 187.249,-321.517 182.917,-331.186 189.892,-331.777"/>
<text text-anchor="middle" x="176.44" y="-345.142" font-family="Helvetica,Arial,sans-serif" font-size="14.00">[0&#45;9]</text>
</g>
<!-- DOUBLE -->
<g id="node36" class="node"><title>DOUBLE</title>
<ellipse fill="none" stroke="black" cx="312.033" cy="-284.644" rx="47.3958" ry="47.3958"/>
<ellipse fill="none" stroke="black" cx="312.033" cy="-284.644" rx="51.3916" ry="51.3916"/>
<text text-anchor="middle" x="312.033" y="-280.944" font-family="Helvetica,Arial,sans-serif" font-size="14.00">DOUBLE</text>
</g>
<!-- INT&#45;&gt;DOUBLE -->
<g id="edge3" class="edge"><title>INT&#45;&gt;DOUBLE</title>
<path fill="none" stroke="black" d="M205.121,-292.572C218.286,-291.587 234.582,-290.367 250.411,-289.182"/>
<polygon fill="black" stroke="black" points="250.998,-292.648 260.709,-288.411 250.475,-285.667 250.998,-292.648"/>
<text text-anchor="middle" x="235.087" y="-295.444" font-family="Helvetica,Arial,sans-serif" font-size="14.00">&#39;.&#39;</text>
</g>
<!-- DEAD -->
<g id="node39" class="node"><title>DEAD</title>
<ellipse fill="none" stroke="black" cx="39.6465" cy="-491.644" rx="35.1841" ry="35.1841"/>
<ellipse fill="none" stroke="black" cx="39.6465" cy="-491.644" rx="39.194" ry="39.194"/>
<text text-anchor="middle" x="39.6465" y="-487.944" font-family="Helvetica,Arial,sans-serif" font-size="14.00">DEAD</text>
</g>
<!-- g&#45;&gt;t -->
<g id="edge15" class="edge"><title>g&#45;&gt;t</title>
<path fill="none" stroke="black" d="M529.382,-496.644C555.647,-496.644 601.757,-496.644 641.27,-496.644 641.27,-496.644 641.27,-496.644 880.558,-496.644 902.665,-496.644 926.074,-487.242 942.878,-478.63"/>
<polygon fill="black" stroke="black" points="944.816,-481.562 951.95,-473.728 941.488,-475.403 944.816,-481.562"/>
<text text-anchor="middle" x="737.914" y="-500.444" font-family="Helvetica,Arial,sans-serif" font-size="14.00">T</text>
</g>
</g>
</svg>
